<svg width="31" height="68" viewBox="0 0 31 68" fill="none" xmlns="http://www.w3.org/2000/svg">
<path d="M5 15.4569C5 14.6523 5.65227 14 6.45689 14H9.2481C10.0527 14 10.705 14.6523 10.705 15.4569V18.2481C10.705 19.0527 10.0527 19.705 9.2481 19.705H6.45689C5.65227 19.705 5 19.0527 5 18.2481V15.4569Z" fill="#313131"/>
<path d="M12.6476 15.4569C12.6476 14.6523 13.2998 14 14.1044 14H16.8957C17.7003 14 18.3525 14.6523 18.3525 15.4569V18.2481C18.3525 19.0527 17.7003 19.705 16.8957 19.705H14.1044C13.2998 19.705 12.6476 19.0527 12.6476 18.2481V15.4569Z" fill="#313131"/>
<path d="M20.2951 15.4569C20.2951 14.6523 20.9474 14 21.752 14H24.5432C25.3478 14 26.0001 14.6523 26.0001 15.4569V18.2481C26.0001 19.0527 25.3478 19.705 24.5432 19.705H21.752C20.9474 19.705 20.2951 19.0527 20.2951 18.2481V15.4569Z" fill="#313131"/>
<path d="M5 23.1016C5 22.297 5.65227 21.6447 6.45689 21.6447H9.2481C10.0527 21.6447 10.705 22.297 10.705 23.1016V25.8928C10.705 26.6974 10.0527 27.3497 9.2481 27.3497H6.45689C5.65227 27.3497 5 26.6974 5 25.8928V23.1016Z" fill="#313131"/>
<path d="M12.6476 23.1016C12.6476 22.297 13.2998 21.6447 14.1044 21.6447H16.8957C17.7003 21.6447 18.3525 22.297 18.3525 23.1016V25.8928C18.3525 26.6974 17.7003 27.3497 16.8957 27.3497H14.1044C13.2998 27.3497 12.6476 26.6974 12.6476 25.8928V23.1016Z" fill="#313131"/>
<path d="M20.2951 23.1016C20.2951 22.297 20.9474 21.6447 21.752 21.6447H24.5432C25.3478 21.6447 26.0001 22.297 26.0001 23.1016V25.8928C26.0001 26.6974 25.3478 27.3497 24.5432 27.3497H21.752C20.9474 27.3497 20.2951 26.6974 20.2951 25.8928V23.1016Z" fill="#313131"/>
<path d="M5 30.7464C5 29.9417 5.65227 29.2895 6.45689 29.2895H9.2481C10.0527 29.2895 10.705 29.9417 10.705 30.7464V33.5376C10.705 34.3422 10.0527 34.9944 9.2481 34.9944H6.45689C5.65227 34.9944 5 34.3422 5 33.5376V30.7464Z" fill="#313131"/>
<path d="M12.6476 30.7463C12.6476 29.9416 13.2998 29.2894 14.1044 29.2894H16.8957C17.7003 29.2894 18.3525 29.9416 18.3525 30.7463V33.5375C18.3525 34.3421 17.7003 34.9944 16.8957 34.9944H14.1044C13.2998 34.9944 12.6476 34.3421 12.6476 33.5375V30.7463Z" fill="#313131"/>
<path d="M20.2951 30.7463C20.2951 29.9416 20.9474 29.2894 21.752 29.2894H24.5432C25.3478 29.2894 26.0001 29.9416 26.0001 30.7463V33.5375C26.0001 34.3421 25.3478 34.9944 24.5432 34.9944H21.752C20.9474 34.9944 20.2951 34.3421 20.2951 33.5375V30.7463Z" fill="#313131"/>
<path d="M25 66V68H6V66H25ZM29 62V6C29 3.79086 27.2091 2 25 2H6C3.79086 2 2 3.79086 2 6V62C2 64.2091 3.79086 66 6 66V68L5.69141 67.9922C2.62332 67.8367 0.163251 65.3767 0.0078125 62.3086L0 62V6C8.73816e-07 2.78979 2.52111 0.168429 5.69141 0.0078125L6 0H25C28.3137 0 31 2.68629 31 6V62L30.9922 62.3086C30.8316 65.4789 28.2102 68 25 68V66C27.2091 66 29 64.2091 29 62Z" fill="#313131"/>
<path d="M11.5 56.3625H18.9697V48.8928H11.5V56.3625ZM20.4697 56.5862L20.4639 56.717C20.4027 57.3178 19.9249 57.7955 19.3242 57.8567L19.1934 57.8625H11.2764C10.6156 57.8623 10.0724 57.3606 10.0068 56.717L10 56.5862V48.6692C10.0003 47.9644 10.5716 47.3931 11.2764 47.3928H19.1934L19.3242 47.3997C19.9678 47.4652 20.4695 48.0084 20.4697 48.6692V56.5862Z" fill="#313131"/>
</svg>
