<svg width="28" height="56" viewBox="0 0 28 56" fill="none" xmlns="http://www.w3.org/2000/svg">
<path d="M5 30.4452C5 29.0949 6.09466 28.0002 7.44499 28.0002C8.79533 28.0002 9.88999 29.0949 9.88999 30.4452C9.88999 31.7956 8.79533 32.8902 7.44499 32.8902C6.09466 32.8902 5 31.7956 5 30.4452Z" fill="#313131"/>
<path d="M11.555 30.4452C11.555 29.0949 12.6497 28.0002 14 28.0002C15.3503 28.0002 16.445 29.0949 16.445 30.4452C16.445 31.7956 15.3503 32.8902 14 32.8902C12.6497 32.8902 11.555 31.7956 11.555 30.4452Z" fill="#313131"/>
<path d="M18.11 30.4452C18.11 29.0949 19.2047 28.0002 20.555 28.0002C21.9053 28.0002 23 29.0949 23 30.4452C23 31.7956 21.9053 32.8902 20.555 32.8902C19.2047 32.8902 18.11 31.7956 18.11 30.4452Z" fill="#313131"/>
<path d="M5 36.998C5 35.6476 6.09466 34.553 7.44499 34.553C8.79533 34.553 9.88999 35.6476 9.88999 36.998C9.88999 38.3483 8.79533 39.443 7.44499 39.443C6.09466 39.443 5 38.3483 5 36.998Z" fill="#313131"/>
<path d="M11.555 36.998C11.555 35.6476 12.6497 34.553 14 34.553C15.3503 34.553 16.445 35.6476 16.445 36.998C16.445 38.3483 15.3503 39.443 14 39.443C12.6497 39.443 11.555 38.3483 11.555 36.998Z" fill="#313131"/>
<path d="M18.11 36.998C18.11 35.6476 19.2047 34.553 20.555 34.553C21.9053 34.553 23 35.6476 23 36.998C23 38.3483 21.9053 39.443 20.555 39.443C19.2047 39.443 18.11 38.3483 18.11 36.998Z" fill="#313131"/>
<path d="M5 43.5505C5 42.2001 6.09466 41.1055 7.44499 41.1055C8.79533 41.1055 9.88999 42.2001 9.88999 43.5505C9.88999 44.9008 8.79533 45.9955 7.44499 45.9955C6.09466 45.9955 5 44.9008 5 43.5505Z" fill="#313131"/>
<path d="M11.555 43.5505C11.555 42.2001 12.6497 41.1055 14 41.1055C15.3503 41.1055 16.445 42.2001 16.445 43.5505C16.445 44.9008 15.3503 45.9955 14 45.9955C12.6497 45.9955 11.555 44.9008 11.555 43.5505Z" fill="#313131"/>
<path d="M18.11 43.5505C18.11 42.2001 19.2047 41.1055 20.555 41.1055C21.9053 41.1055 23 42.2001 23 43.5505C23 44.9008 21.9053 45.9955 20.555 45.9955C19.2047 45.9955 18.11 44.9008 18.11 43.5505Z" fill="#313131"/>
<path d="M16 54.0002V56.0002H12V54.0002H16ZM26 44.0002V22.0002C26 21.448 25.5523 21.0002 25 21.0002H3C2.44772 21.0002 2 21.448 2 22.0002V44.0002C2 49.5231 6.47715 54.0002 12 54.0002V56.0002L11.6904 55.9963C5.20608 55.8321 0 50.5242 0 44.0002V22.0002C2.25493e-07 20.3434 1.34315 19.0002 3 19.0002H25L25.1543 19.0042C26.7394 19.0845 28 20.3951 28 22.0002V44.0002C28 50.5242 22.7939 55.8321 16.3096 55.9963L16 56.0002V54.0002C21.5228 54.0002 26 49.5231 26 44.0002Z" fill="#313131"/>
<path d="M8.83008 8.93848C8.83008 6.11789 11.117 3.83132 13.9375 3.83105C16.7583 3.83105 19.0449 6.11773 19.0449 8.93848V20.0469H22.876V8.93848C22.876 4.00216 18.8738 0 13.9375 0C9.00141 0.000263354 5 4.00233 5 8.93848V20.0469H8.83008V8.93848Z" fill="#313131"/>
</svg>
