<svg width="29" height="88" viewBox="0 0 29 88" fill="none" xmlns="http://www.w3.org/2000/svg">
<path d="M4 15.4569C4 14.6523 4.65227 14 5.45689 14H8.2481C9.05272 14 9.70499 14.6523 9.70499 15.4569V18.2481C9.70499 19.0527 9.05272 19.705 8.2481 19.705H5.45689C4.65227 19.705 4 19.0527 4 18.2481V15.4569Z" fill="#313131"/>
<path d="M11.6476 15.4569C11.6476 14.6523 12.2998 14 13.1044 14H15.8957C16.7003 14 17.3525 14.6523 17.3525 15.4569V18.2481C17.3525 19.0527 16.7003 19.705 15.8957 19.705H13.1044C12.2998 19.705 11.6476 19.0527 11.6476 18.2481V15.4569Z" fill="#313131"/>
<path d="M19.2951 15.4569C19.2951 14.6523 19.9474 14 20.752 14H23.5432C24.3478 14 25.0001 14.6523 25.0001 15.4569V18.2481C25.0001 19.0527 24.3478 19.705 23.5432 19.705H20.752C19.9474 19.705 19.2951 19.0527 19.2951 18.2481V15.4569Z" fill="#313131"/>
<path d="M4 23.1016C4 22.297 4.65227 21.6447 5.45689 21.6447H8.2481C9.05272 21.6447 9.70499 22.297 9.70499 23.1016V25.8928C9.70499 26.6974 9.05272 27.3497 8.2481 27.3497H5.45689C4.65227 27.3497 4 26.6974 4 25.8928V23.1016Z" fill="#313131"/>
<path d="M11.6476 23.1016C11.6476 22.297 12.2998 21.6447 13.1044 21.6447H15.8957C16.7003 21.6447 17.3525 22.297 17.3525 23.1016V25.8928C17.3525 26.6974 16.7003 27.3497 15.8957 27.3497H13.1044C12.2998 27.3497 11.6476 26.6974 11.6476 25.8928V23.1016Z" fill="#313131"/>
<path d="M19.2951 23.1016C19.2951 22.297 19.9474 21.6447 20.752 21.6447H23.5432C24.3478 21.6447 25.0001 22.297 25.0001 23.1016V25.8928C25.0001 26.6974 24.3478 27.3497 23.5432 27.3497H20.752C19.9474 27.3497 19.2951 26.6974 19.2951 25.8928V23.1016Z" fill="#313131"/>
<path d="M4 30.7464C4 29.9417 4.65227 29.2895 5.45689 29.2895H8.2481C9.05272 29.2895 9.70499 29.9417 9.70499 30.7464V33.5376C9.70499 34.3422 9.05272 34.9944 8.2481 34.9944H5.45689C4.65227 34.9944 4 34.3422 4 33.5376V30.7464Z" fill="#313131"/>
<path d="M11.6476 30.7463C11.6476 29.9416 12.2998 29.2894 13.1044 29.2894H15.8957C16.7003 29.2894 17.3525 29.9416 17.3525 30.7463V33.5375C17.3525 34.3421 16.7003 34.9944 15.8957 34.9944H13.1044C12.2998 34.9944 11.6476 34.3421 11.6476 33.5375V30.7463Z" fill="#313131"/>
<path d="M19.2951 30.7463C19.2951 29.9416 19.9474 29.2894 20.752 29.2894H23.5432C24.3478 29.2894 25.0001 29.9416 25.0001 30.7463V33.5375C25.0001 34.3421 24.3478 34.9944 23.5432 34.9944H20.752C19.9474 34.9944 19.2951 34.3421 19.2951 33.5375V30.7463Z" fill="#313131"/>
<path d="M26 86V88H3V86H26ZM27 85V3C27 2.44772 26.5523 2 26 2H3C2.44772 2 2 2.44771 2 3V85C2 85.5523 2.44772 86 3 86V88L2.8457 87.9961C1.31166 87.9184 0.0816253 86.6883 0.00390625 85.1543L0 85V3C1.24829e-06 1.3949 1.26056 0.0842144 2.8457 0.00390625L3 0H26C27.6569 0 29 1.34315 29 3V85L28.9961 85.1543C28.9158 86.7394 27.6051 88 26 88V86C26.5523 86 27 85.5523 27 85Z" fill="#313131"/>
<path d="M12.5 64.5344H15.8838V61.1506H12.5V64.5344ZM17.3838 64.7581L17.3779 64.8889C17.3168 65.4896 16.839 65.9674 16.2383 66.0286L16.1074 66.0344H12.2764C11.6156 66.0342 11.0724 65.5325 11.0068 64.8889L11 64.7581V60.927C11.0003 60.2222 11.5716 59.6509 12.2764 59.6506H16.1074L16.2383 59.6575C16.8818 59.723 17.3835 60.2662 17.3838 60.927V64.7581Z" fill="#313131"/>
</svg>
