<svg width="57" height="89" viewBox="0 0 57 89" fill="none" xmlns="http://www.w3.org/2000/svg">
<path d="M15.7686 1C15.2923 1.53103 15 2.23053 15 3H3C2.44772 3 2 3.44771 2 4V85C2 85.5523 2.44772 86 3 86H15C15 86.7695 15.2923 87.469 15.7686 88H3L2.8457 87.9961C1.26055 87.9158 0 86.6051 0 85V4C8.42593e-07 2.3949 1.26056 1.08421 2.8457 1.00391L3 1H15.7686Z" fill="#313131"/>
<path d="M54 87V89H18V87H54ZM55 86V3C55 2.44772 54.5523 2 54 2H18C17.4477 2 17 2.44772 17 3V86C17 86.5523 17.4477 87 18 87V89C16.3431 89 15 87.6569 15 86V3C15 1.34315 16.3431 7.24787e-08 18 0H54L54.1543 0.00390625C55.7394 0.0842149 57 1.3949 57 3V86C57 87.6051 55.7394 88.9158 54.1543 88.9961L54 89V87C54.5523 87 55 86.5523 55 86Z" fill="#313131"/>
<path fill-rule="evenodd" clip-rule="evenodd" d="M24 34C24.5523 34 25 34.4477 25 35V51C25 51.5523 24.5523 52 24 52H20C19.4477 52 19 51.5523 19 51V35C19 34.4477 19.4477 34 20 34H24ZM20.4365 39.29C20.1955 39.29 20 39.4855 20 39.7266V40.5625C20 40.8035 20.1955 40.999 20.4365 40.999H21.2725C21.5135 40.999 21.709 40.8035 21.709 40.5625V39.7266C21.709 39.4855 21.5135 39.29 21.2725 39.29H20.4365ZM22.7275 39.29C22.4865 39.29 22.2911 39.4856 22.291 39.7266V40.5625C22.291 40.8035 22.4865 40.999 22.7275 40.999H23.5635C23.8045 40.999 24 40.8035 24 40.5625V39.7266C23.9999 39.4856 23.8045 39.29 23.5635 39.29H22.7275ZM20.4365 37C20.1955 37 20 37.1955 20 37.4365V38.2725C20 38.5135 20.1955 38.709 20.4365 38.709H21.2725C21.5135 38.709 21.709 38.5135 21.709 38.2725V37.4365C21.709 37.1955 21.5135 37 21.2725 37H20.4365ZM22.7275 37C22.4865 37 22.291 37.1955 22.291 37.4365V38.2725C22.291 38.5135 22.4865 38.709 22.7275 38.709H23.5635C23.8045 38.709 24 38.5135 24 38.2725V37.4365C24 37.1955 23.8045 37 23.5635 37H22.7275Z" fill="#313131"/>
</svg>
