<svg width="42" height="100" viewBox="0 0 42 100" fill="none" xmlns="http://www.w3.org/2000/svg">
<path d="M39.1543 0.00390625C40.7394 0.0842149 42 1.3949 42 3V4.37109C42 2.26516 39.887 0.814453 37.9219 1.57129L36.8086 2H3C2.44771 2 2 2.44772 2 3V86C2 86.5523 2.44771 87 3 87H12V89H3C1.34315 89 0 87.6569 0 86V3C0 1.34315 1.34315 7.24787e-08 3 0H39L39.1543 0.00390625Z" fill="#313131"/>
<path d="M42 87.3838V4.37109C42 2.26516 39.887 0.814453 37.9219 1.57129L13.9219 10.8174C12.7642 11.2634 12.0001 12.3756 12 13.6162V96.6289L12.0059 96.8252C12.1278 98.7595 14.0447 100.075 15.8936 99.4932L16.0781 99.4287L40.0781 90.1826C41.1636 89.7644 41.9032 88.7606 41.9912 87.6143L42 87.3838ZM40 87.3838C39.9999 87.7973 39.7452 88.1678 39.3594 88.3164L15.3594 97.5625C14.7043 97.8148 14 97.3309 14 96.6289V13.6162C14.0001 13.2027 14.2548 12.8322 14.6406 12.6836L38.6406 3.4375C39.2957 3.18522 40 3.66912 40 4.37109V87.3838Z" fill="#313131"/>
<path d="M19.5381 47.7608C20.2038 47.4144 20.9999 47.8971 21 48.6475V53.3038L22.9951 52.1368C23.4717 51.8581 24.0844 52.0186 24.3633 52.4952C24.6419 52.9717 24.4813 53.5844 24.0049 53.8633L21 55.6211V58.7911C21 59.1639 20.7925 59.5055 20.4619 59.6778L17.4619 61.2393C16.7963 61.5857 16.0002 61.1029 16 60.3526V50.209C16 49.8361 16.2073 49.4935 16.5381 49.3213L19.5381 47.7608Z" fill="#313131"/>
</svg>
