<svg width="50" height="95" viewBox="0 0 50 95" fill="none" xmlns="http://www.w3.org/2000/svg">
<path d="M21 93V95H3V93H21ZM22 92V3C22 2.44772 21.5523 2 21 2H3C2.44772 2 2 2.44771 2 3V92C2 92.5523 2.44772 93 3 93V95C1.34315 95 0 93.6569 0 92V3C5.15413e-07 1.34315 1.34315 0 3 0H21C22.6569 0 24 1.34315 24 3V92C24 93.6569 22.6569 95 21 95V93C21.5523 93 22 92.5523 22 92Z" fill="#313131"/>
<path fill-rule="evenodd" clip-rule="evenodd" d="M45.3291 43.3066C47.797 43.3068 49.7976 45.3075 49.7979 47.7754C49.7979 50.2435 47.7971 52.245 45.3291 52.2451H10.8535C8.38547 52.245 6.38477 50.2435 6.38477 47.7754C6.38503 45.3075 8.38563 43.3068 10.8535 43.3066H45.3291ZM10.8516 46C9.87116 46.0003 9.07644 46.795 9.07617 47.7754C9.07617 48.756 9.871 49.5515 10.8516 49.5518C11.8324 49.5518 12.6279 48.7562 12.6279 47.7754C12.6277 46.7948 11.8322 46 10.8516 46Z" fill="#313131"/>
<path d="M12.8408 7.2998C12.8408 6.92949 12.5412 6.62904 12.1709 6.62891C11.8005 6.62891 11.5 6.92941 11.5 7.2998C11.5001 7.67008 11.8006 7.96973 12.1709 7.96973V9.46973L11.9482 9.45898C10.9269 9.35503 10.1144 8.54295 10.0107 7.52148L10 7.2998C10 6.10099 10.9721 5.12891 12.1709 5.12891L12.3926 5.13965C13.4872 5.25078 14.3408 6.17589 14.3408 7.2998L14.3301 7.52148C14.2189 8.61598 13.2947 9.4696 12.1709 9.46973V7.96973C12.5411 7.96959 12.8407 7.67 12.8408 7.2998Z" fill="#313131"/>
<path d="M4 14.433C4 13.8077 4.50692 13.3008 5.13223 13.3008H7.30144C7.92676 13.3008 8.43368 13.8077 8.43368 14.433V16.6022C8.43368 17.2275 7.92676 17.7345 7.30144 17.7345H5.13223C4.50692 17.7345 4 17.2275 4 16.6022V14.433Z" fill="#313131"/>
<path d="M9.94332 14.433C9.94332 13.8077 10.4502 13.3008 11.0756 13.3008H13.2448C13.8701 13.3008 14.377 13.8077 14.377 14.433V16.6022C14.377 17.2275 13.8701 17.7345 13.2448 17.7345H11.0756C10.4502 17.7345 9.94332 17.2275 9.94332 16.6022V14.433Z" fill="#313131"/>
<path d="M15.8866 14.433C15.8866 13.8077 16.3936 13.3008 17.0189 13.3008H19.1881C19.8134 13.3008 20.3203 13.8077 20.3203 14.433V16.6022C20.3203 17.2275 19.8134 17.7345 19.1881 17.7345H17.0189C16.3936 17.7345 15.8866 17.2275 15.8866 16.6022V14.433Z" fill="#313131"/>
<path d="M4 20.3742C4 19.7489 4.50692 19.2419 5.13223 19.2419H7.30144C7.92676 19.2419 8.43368 19.7489 8.43368 20.3742V22.5434C8.43368 23.1687 7.92676 23.6756 7.30144 23.6756H5.13223C4.50692 23.6756 4 23.1687 4 22.5434V20.3742Z" fill="#313131"/>
<path d="M9.94332 20.3742C9.94332 19.7488 10.4502 19.2419 11.0756 19.2419H13.2448C13.8701 19.2419 14.377 19.7488 14.377 20.3742V22.5434C14.377 23.1687 13.8701 23.6756 13.2448 23.6756H11.0756C10.4502 23.6756 9.94332 23.1687 9.94332 22.5434V20.3742Z" fill="#313131"/>
<path d="M15.8866 20.3742C15.8866 19.7488 16.3936 19.2419 17.0189 19.2419H19.1881C19.8134 19.2419 20.3203 19.7488 20.3203 20.3742V22.5434C20.3203 23.1687 19.8134 23.6756 19.1881 23.6756H17.0189C16.3936 23.6756 15.8866 23.1687 15.8866 22.5434V20.3742Z" fill="#313131"/>
<path d="M4 26.3153C4 25.69 4.50692 25.1831 5.13223 25.1831H7.30144C7.92676 25.1831 8.43368 25.69 8.43368 26.3153V28.4845C8.43368 29.1098 7.92676 29.6168 7.30144 29.6168H5.13223C4.50692 29.6168 4 29.1098 4 28.4845V26.3153Z" fill="#313131"/>
<path d="M9.94332 26.3153C9.94332 25.69 10.4502 25.1831 11.0756 25.1831H13.2448C13.8701 25.1831 14.377 25.69 14.377 26.3153V28.4845C14.377 29.1098 13.8701 29.6167 13.2448 29.6167H11.0756C10.4502 29.6167 9.94332 29.1098 9.94332 28.4845V26.3153Z" fill="#313131"/>
<path d="M15.8866 26.3153C15.8866 25.69 16.3936 25.1831 17.0189 25.1831H19.1881C19.8134 25.1831 20.3203 25.69 20.3203 26.3153V28.4845C20.3203 29.1098 19.8134 29.6167 19.1881 29.6167H17.0189C16.3936 29.6167 15.8866 29.1098 15.8866 28.4845V26.3153Z" fill="#313131"/>
</svg>
