<svg width="796" height="239" viewBox="0 0 796 239" fill="none" xmlns="http://www.w3.org/2000/svg">
<g clip-path="url(#clip0_260_2)">
<path d="M133.877 51.586H59.684V94.506H130.218V137.756H59.684V186.997H133.877V230.25H8.44604V8.334H133.877V51.586Z" fill="#1D1D1B"/>
<path d="M226.156 186.996H321.311V230.25H141.982L248.448 51.585H159.283V8.334H332.291L226.156 186.996Z" fill="#1D1D1B"/>
<mask id="mask0_260_2" style="mask-type:luminance" maskUnits="userSpaceOnUse" x="0" y="0" width="796" height="239">
<path d="M0 0.0010376H795.884V238.582H0V0.0010376Z" fill="white"/>
</mask>
<g mask="url(#mask0_260_2)">
<path d="M386.283 69.5513C376.635 78.8683 366.653 95.1703 366.653 119.79C366.653 140.087 373.308 156.388 386.948 169.696C401.255 183.337 417.224 187.994 434.527 187.994C457.151 187.994 473.12 179.678 483.768 169.029C492.416 160.713 503.064 145.076 503.064 119.457C503.064 96.5003 493.75 79.5333 483.768 69.5513C472.788 58.9043 455.154 50.5863 434.859 50.5863C415.563 50.5863 398.26 57.5743 386.283 69.5513ZM521.03 35.6163C541.992 55.9113 555.633 85.1883 555.633 119.457C555.633 149.07 544.984 179.347 521.03 202.633C500.4 222.596 472.457 235.238 435.19 235.238C393.602 235.238 365.321 218.606 348.687 202.633C327.394 182.674 314.085 152.729 314.085 120.122C314.085 88.1823 328.391 55.9113 348.354 35.9473C363.326 20.9773 390.94 3.34329 435.19 3.34329C469.792 3.34329 498.739 13.9893 521.03 35.6163Z" fill="#88C384"/>
<path d="M571.178 230.25V8.334H615.762L736.204 151.4V8.334H787.438V230.25H742.858L622.416 86.521V230.25H571.178Z" fill="#1D1D1B"/>
</g>
</g>
<defs>
<clipPath id="clip0_260_2">
<rect width="795.884" height="238.581" fill="white"/>
</clipPath>
</defs>
</svg>
